<?xml version="1.0" encoding="utf-8"?>
<!-- Generator: Adobe Illustrator 19.2.1, SVG Export Plug-In . SVG Version: 6.00 Build 0)  -->
<svg version="1.1" id="Layer_1" xmlns="http://www.w3.org/2000/svg" xmlns:xlink="http://www.w3.org/1999/xlink" x="0px" y="0px"
	 viewBox="0 0 64 64" style="enable-background:new 0 0 64 64;" xml:space="preserve">
<path style="fill:none;stroke:#000000;stroke-linecap:round;stroke-linejoin:round;stroke-miterlimit:10;" d="M57.48,23.35
	c1.21-4.39,2.47-11.5-1.17-13.96c-4.22-2.85-12.17,2.03-15.04,3.99c-2.67-0.64-5.5-0.99-8.44-0.99c-3.44,0-6.73,0.47-9.78,1.34
	C20.03,11.81,12.93,7.88,8.9,10.6c-3.75,2.53-2.57,9.67-1.49,13.83c-2.08,3.1-3.25,6.63-3.25,10.37c0,12.37,12.84,22.39,28.67,22.39
	c15.83,0,28.67-10.03,28.67-22.39C61.5,30.61,60.03,26.7,57.48,23.35z"/>
<circle style="fill:#1A202C;" cx="22.75" cy="34.75" r="3"/>
<circle style="fill:#1A202C;" cx="42.25" cy="34.75" r="3"/>
<ellipse style="fill:#6B6B6B;" cx="12.67" cy="33.29" rx="1.5" ry="0.52"/>
<ellipse style="fill:#6B6B6B;" cx="12.67" cy="36.5" rx="1.5" ry="0.52"/>
<ellipse style="fill:#6B6B6B;" cx="52.63" cy="32.85" rx="1.5" ry="0.52"/>
<ellipse style="fill:#5D5D5D;" cx="52.63" cy="36.42" rx="1.5" ry="0.52"/>
<path style="fill:none;stroke:#1A202C;stroke-linecap:round;stroke-linejoin:round;" d="M30.33,38.13c1.67,1.67,3.33,1.67,5,0"/>
</svg>
